<?xml version="1.0" encoding="UTF-8"?>
<svg xmlns="http://www.w3.org/2000/svg" xmlns:xlink="http://www.w3.org/1999/xlink" width="15px" height="15px" viewBox="0 0 15 15" version="1.1">
<g id="surface1">
<path style=" stroke:none;fill-rule:nonzero;fill:rgb(0%,0%,0%);fill-opacity:1;" d="M 11.875 0.625 L 3.125 0.625 C 1.398438 0.628906 0.00390625 2.023438 0 3.75 L 0 11.25 C 0.00390625 12.976562 1.398438 14.371094 3.125 14.375 L 11.875 14.375 C 13.601562 14.371094 14.996094 12.976562 15 11.25 L 15 3.75 C 14.996094 2.023438 13.601562 0.628906 11.875 0.625 Z M 3.125 1.875 L 11.875 1.875 C 12.640625 1.875 13.328125 2.34375 13.613281 3.054688 L 8.828125 7.839844 C 8.09375 8.570312 6.90625 8.570312 6.171875 7.839844 L 1.386719 3.054688 C 1.671875 2.34375 2.359375 1.875 3.125 1.875 Z M 11.875 13.125 L 3.125 13.125 C 2.089844 13.125 1.25 12.285156 1.25 11.25 L 1.25 4.6875 L 5.289062 8.726562 C 6.511719 9.945312 8.488281 9.945312 9.710938 8.726562 L 13.75 4.6875 L 13.75 11.25 C 13.75 12.285156 12.910156 13.125 11.875 13.125 Z M 11.875 13.125 "/>
</g>
</svg>
