<?xml version="1.0" encoding="UTF-8"?>
<svg xmlns="http://www.w3.org/2000/svg" xmlns:xlink="http://www.w3.org/1999/xlink" width="20px" height="px" viewBox="0 0 20 20" version="1.1">
<g id="surface1">
<path style=" stroke:none;fill-rule:nonzero;fill:rgb(0%,0%,0%);fill-opacity:1;" d="M 15.75 0 L 4.25 0 C 1.925781 -0.0195312 0.0234375 1.84375 0 4.167969 L 0 6.667969 C 0 7.125 0.375 7.5 0.832031 7.5 C 1.292969 7.5 1.667969 7.125 1.667969 6.667969 L 1.667969 4.167969 C 1.691406 2.761719 2.847656 1.644531 4.25 1.667969 L 15.75 1.667969 C 17.152344 1.644531 18.308594 2.761719 18.332031 4.167969 L 18.332031 15.832031 C 18.308594 17.238281 17.152344 18.355469 15.75 18.332031 L 4.25 18.332031 C 2.847656 18.355469 1.691406 17.238281 1.667969 15.832031 L 1.667969 13.332031 C 1.667969 12.875 1.292969 12.5 0.832031 12.5 C 0.375 12.5 0 12.875 0 13.332031 L 0 15.832031 C 0.0234375 18.15625 1.925781 20.019531 4.25 20 L 15.75 20 C 18.074219 20.019531 19.976562 18.15625 20 15.832031 L 20 4.167969 C 19.976562 1.84375 18.074219 -0.0195312 15.75 0 Z M 15.75 0 "/>
<path style=" stroke:none;fill-rule:nonzero;fill:rgb(0%,0%,0%);fill-opacity:1;" d="M 2.5 10 C 2.5 10.460938 2.875 10.832031 3.332031 10.832031 L 14.324219 10.808594 L 10.722656 14.410156 C 10.503906 14.621094 10.417969 14.929688 10.492188 15.222656 C 10.570312 15.511719 10.796875 15.738281 11.089844 15.816406 C 11.378906 15.894531 11.691406 15.804688 11.898438 15.589844 L 15.722656 11.765625 C 16.695312 10.792969 16.695312 9.207031 15.722656 8.234375 L 11.902344 4.410156 C 11.574219 4.09375 11.054688 4.097656 10.734375 4.421875 C 10.410156 4.742188 10.40625 5.261719 10.722656 5.589844 L 14.273438 9.140625 L 3.332031 9.167969 C 2.875 9.167969 2.5 9.539062 2.5 10 Z M 2.5 10 "/>
</g>
</svg>
