<?xml version="1.0" encoding="UTF-8"?>
<svg xmlns="http://www.w3.org/2000/svg" xmlns:xlink="http://www.w3.org/1999/xlink" width="20px" height="20px" viewBox="0 0 20 20" version="1.1">
<g id="surface1">
<path style=" stroke:none;fill-rule:nonzero;fill:rgb(0%,0%,0%);fill-opacity:1;" d="M 19.101562 1.417969 C 18.535156 0.941406 17.78125 0.742188 17.054688 0.875 L 11.902344 1.8125 C 11.167969 1.945312 10.496094 2.324219 10 2.882812 C 9.503906 2.320312 8.832031 1.945312 8.097656 1.808594 L 2.945312 0.875 C 2.21875 0.742188 1.46875 0.941406 0.898438 1.414062 C 0.328125 1.890625 0 2.59375 0 3.332031 L 0 17.363281 L 10 19.179688 L 20 17.363281 L 20 3.332031 C 20 2.59375 19.671875 1.890625 19.101562 1.417969 Z M 9.167969 17.332031 L 1.667969 15.972656 L 1.667969 3.332031 C 1.667969 3.085938 1.777344 2.851562 1.964844 2.695312 C 2.15625 2.535156 2.40625 2.46875 2.648438 2.515625 L 7.796875 3.449219 C 8.589844 3.59375 9.167969 4.285156 9.167969 5.089844 Z M 18.332031 15.96875 L 10.832031 17.332031 L 10.832031 5.089844 C 10.832031 4.285156 11.410156 3.59375 12.203125 3.449219 L 17.351562 2.515625 C 17.59375 2.46875 17.84375 2.535156 18.035156 2.695312 C 18.222656 2.851562 18.332031 3.085938 18.332031 3.332031 Z M 18.332031 15.96875 "/>
</g>
</svg>
