<?xml version="1.0" encoding="UTF-8"?>
<svg xmlns="http://www.w3.org/2000/svg" xmlns:xlink="http://www.w3.org/1999/xlink" width="50px" height="50px" viewBox="0 0 50 50" version="1.1">
<g id="surface1">
<path style=" stroke:none;fill-rule:nonzero;fill:rgb(0%,0%,0%);fill-opacity:1;" d="M 18.75 19.792969 C 18.75 22.667969 16.417969 25 13.542969 25 C 10.664062 25 8.332031 22.667969 8.332031 19.792969 C 8.332031 16.914062 10.664062 14.582031 13.542969 14.582031 C 16.417969 14.582031 18.75 16.914062 18.75 19.792969 Z M 50 25 L 50 20.832031 C 50 16.230469 46.269531 12.5 41.667969 12.5 L 31.25 12.5 C 26.648438 12.5 22.917969 16.230469 22.917969 20.832031 L 22.917969 25 Z M 4.167969 29.167969 L 4.167969 6.25 C 4.167969 5.097656 3.234375 4.167969 2.082031 4.167969 C 0.933594 4.167969 0 5.097656 0 6.25 L 0 43.75 C 0 44.902344 0.933594 45.832031 2.082031 45.832031 C 3.234375 45.832031 4.167969 44.902344 4.167969 43.75 L 4.167969 39.582031 L 45.832031 39.582031 L 45.832031 43.75 C 45.832031 44.902344 46.765625 45.832031 47.917969 45.832031 C 49.066406 45.832031 50 44.902344 50 43.75 L 50 29.167969 Z M 4.167969 29.167969 "/>
</g>
</svg>
