<?xml version="1.0" encoding="UTF-8"?>
<svg xmlns="http://www.w3.org/2000/svg" xmlns:xlink="http://www.w3.org/1999/xlink" width="20px" height="px" viewBox="0 0 20 20" version="1.1">
<g id="surface1">
<path style=" stroke:none;fill-rule:nonzero;fill:rgb(0%,0%,0%);fill-opacity:1;" d="M 15.832031 0 L 4.167969 0 C 1.867188 0.00390625 0.00390625 1.867188 0 4.167969 L 0 15.832031 C 0.00390625 18.132812 1.867188 19.996094 4.167969 20 L 15.832031 20 C 18.132812 19.996094 19.996094 18.132812 20 15.832031 L 20 4.167969 C 19.996094 1.867188 18.132812 0.00390625 15.832031 0 Z M 4.167969 1.667969 L 15.832031 1.667969 C 17.214844 1.667969 18.332031 2.785156 18.332031 4.167969 L 18.332031 15.832031 C 18.332031 16.203125 18.246094 16.570312 18.082031 16.902344 L 10.449219 9.269531 C 8.820312 7.640625 6.179688 7.640625 4.554688 9.269531 L 1.667969 12.15625 L 1.667969 4.167969 C 1.667969 2.785156 2.785156 1.667969 4.167969 1.667969 Z M 4.167969 18.332031 C 2.785156 18.332031 1.667969 17.214844 1.667969 15.832031 L 1.667969 14.511719 L 5.730469 10.445312 C 6.707031 9.46875 8.292969 9.46875 9.269531 10.445312 L 16.902344 18.082031 C 16.570312 18.246094 16.203125 18.332031 15.832031 18.332031 Z M 4.167969 18.332031 "/>
<path style=" stroke:none;fill-rule:nonzero;fill:rgb(0%,0%,0%);fill-opacity:1;" d="M 13.332031 8.75 C 14.945312 8.75 16.25 7.445312 16.25 5.832031 C 16.25 4.222656 14.945312 2.917969 13.332031 2.917969 C 11.722656 2.917969 10.417969 4.222656 10.417969 5.832031 C 10.417969 7.445312 11.722656 8.75 13.332031 8.75 Z M 13.332031 4.582031 C 14.023438 4.582031 14.582031 5.144531 14.582031 5.832031 C 14.582031 6.523438 14.023438 7.082031 13.332031 7.082031 C 12.644531 7.082031 12.082031 6.523438 12.082031 5.832031 C 12.082031 5.144531 12.644531 4.582031 13.332031 4.582031 Z M 13.332031 4.582031 "/>
</g>
</svg>
