<?xml version="1.0" encoding="UTF-8"?>
<svg xmlns="http://www.w3.org/2000/svg" xmlns:xlink="http://www.w3.org/1999/xlink" width="20px" height="px" viewBox="0 0 20 20" version="1.1">
<g id="surface1">
<path style=" stroke:none;fill-rule:nonzero;fill:rgb(0%,0%,0%);fill-opacity:1;" d="M 9.167969 10 L 14.167969 10 L 14.167969 11.667969 L 9.167969 11.667969 Z M 17.5 1.667969 L 17.5 17.5 C 17.5 18.878906 16.378906 20 15 20 L 5 20 C 3.621094 20 2.5 18.878906 2.5 17.5 L 2.5 1.667969 L 6.808594 1.667969 C 7.152344 0.695312 8.078125 0 9.167969 0 L 10.832031 0 C 11.921875 0 12.847656 0.695312 13.191406 1.667969 Z M 15.832031 3.332031 L 11.667969 3.332031 L 11.667969 2.5 C 11.667969 2.039062 11.292969 1.667969 10.832031 1.667969 L 9.167969 1.667969 C 8.707031 1.667969 8.332031 2.039062 8.332031 2.5 L 8.332031 3.332031 L 4.167969 3.332031 L 4.167969 17.5 C 4.167969 17.960938 4.539062 18.332031 5 18.332031 L 15 18.332031 C 15.460938 18.332031 15.832031 17.960938 15.832031 17.5 Z M 9.167969 8.332031 L 14.167969 8.332031 L 14.167969 6.667969 L 9.167969 6.667969 Z M 9.167969 15 L 14.167969 15 L 14.167969 13.332031 L 9.167969 13.332031 Z M 5.832031 8.332031 L 7.5 8.332031 L 7.5 6.667969 L 5.832031 6.667969 Z M 5.832031 11.667969 L 7.5 11.667969 L 7.5 10 L 5.832031 10 Z M 5.832031 15 L 7.5 15 L 7.5 13.332031 L 5.832031 13.332031 Z M 5.832031 15 "/>
</g>
</svg>
