<?xml version="1.0" encoding="UTF-8"?>
<svg xmlns="http://www.w3.org/2000/svg" xmlns:xlink="http://www.w3.org/1999/xlink" width="20px" height="20px" viewBox="0 0 20 20" version="1.1">
<g id="surface1">
<path style=" stroke:none;fill-rule:nonzero;fill:rgb(0%,0%,0%);fill-opacity:1;" d="M 19.039062 6.398438 L 18.316406 5.832031 L 18.335938 5.832031 L 18.335938 1.667969 L 16.667969 1.667969 L 16.667969 4.542969 L 11.539062 0.53125 C 10.632812 -0.179688 9.367188 -0.179688 8.460938 0.53125 L 0.960938 6.398438 C 0.351562 6.875 0 7.59375 0 8.371094 L 0 20 L 7.5 20 L 7.5 12.5 C 7.5 12.039062 7.875 11.667969 8.332031 11.667969 L 11.667969 11.667969 C 12.125 11.667969 12.5 12.039062 12.5 12.5 L 12.5 20 L 20 20 L 20 8.371094 C 20 7.59375 19.648438 6.875 19.039062 6.398438 Z M 18.332031 18.332031 L 14.167969 18.332031 L 14.167969 12.5 C 14.167969 11.121094 13.046875 10 11.667969 10 L 8.332031 10 C 6.953125 10 5.832031 11.121094 5.832031 12.5 L 5.832031 18.332031 L 1.667969 18.332031 L 1.667969 8.371094 C 1.667969 8.109375 1.785156 7.871094 1.988281 7.710938 L 9.488281 1.84375 C 9.789062 1.605469 10.210938 1.605469 10.511719 1.84375 L 18.011719 7.710938 C 18.214844 7.871094 18.332031 8.109375 18.332031 8.371094 Z M 18.332031 18.332031 "/>
</g>
</svg>
