<?xml version="1.0" encoding="UTF-8"?>
<svg xmlns="http://www.w3.org/2000/svg" xmlns:xlink="http://www.w3.org/1999/xlink" width="20px" height="20px" viewBox="0 0 20 20" version="1.1">
<g id="surface1">
<path style=" stroke:none;fill-rule:nonzero;fill:rgb(0%,0%,0%);fill-opacity:1;" d="M 6.25 10.832031 C 4.179688 10.832031 2.5 9.15625 2.5 7.082031 C 2.5 5.011719 4.179688 3.332031 6.25 3.332031 C 8.320312 3.332031 10 5.011719 10 7.082031 C 9.996094 9.152344 8.320312 10.832031 6.25 10.832031 Z M 6.25 5 C 5.097656 5 4.167969 5.933594 4.167969 7.082031 C 4.167969 8.234375 5.097656 9.167969 6.25 9.167969 C 7.402344 9.167969 8.332031 8.234375 8.332031 7.082031 C 8.332031 5.933594 7.402344 5 6.25 5 Z M 12.5 19.167969 L 12.5 18.75 C 12.5 15.296875 9.703125 12.5 6.25 12.5 C 2.796875 12.5 0 15.296875 0 18.75 L 0 19.167969 C 0 19.625 0.375 20 0.832031 20 C 1.292969 20 1.667969 19.625 1.667969 19.167969 L 1.667969 18.75 C 1.667969 16.21875 3.71875 14.167969 6.25 14.167969 C 8.78125 14.167969 10.832031 16.21875 10.832031 18.75 L 10.832031 19.167969 C 10.832031 19.625 11.207031 20 11.667969 20 C 12.125 20 12.5 19.625 12.5 19.167969 Z M 20 15 C 20 12.699219 18.648438 10.613281 16.546875 9.675781 C 14.449219 8.734375 11.992188 9.117188 10.277344 10.652344 C 10.050781 10.851562 9.949219 11.152344 10.011719 11.445312 C 10.070312 11.742188 10.285156 11.980469 10.570312 12.070312 C 10.855469 12.164062 11.167969 12.097656 11.390625 11.894531 C 12.613281 10.800781 14.367188 10.527344 15.867188 11.195312 C 17.367188 11.867188 18.332031 13.355469 18.332031 15 C 18.332031 15.460938 18.707031 15.832031 19.167969 15.832031 C 19.625 15.832031 20 15.460938 20 15 Z M 14.582031 7.5 C 12.511719 7.5 10.832031 5.820312 10.832031 3.75 C 10.832031 1.679688 12.511719 0 14.582031 0 C 16.65625 0 18.332031 1.679688 18.332031 3.75 C 18.332031 5.820312 16.652344 7.496094 14.582031 7.5 Z M 14.582031 1.667969 C 13.433594 1.667969 12.5 2.597656 12.5 3.75 C 12.5 4.902344 13.433594 5.832031 14.582031 5.832031 C 15.734375 5.832031 16.667969 4.902344 16.667969 3.75 C 16.667969 2.597656 15.734375 1.667969 14.582031 1.667969 Z M 14.582031 1.667969 "/>
</g>
</svg>
