<?xml version="1.0" encoding="UTF-8"?>
<svg xmlns="http://www.w3.org/2000/svg" xmlns:xlink="http://www.w3.org/1999/xlink" width="20px" height="20px" viewBox="0 0 20 20" version="1.1">
<g id="surface1">
<path style=" stroke:none;fill-rule:nonzero;fill:rgb(0%,0%,0%);fill-opacity:1;" d="M 10 0 C 4.476562 0 0 4.476562 0 10 C 0 15.523438 4.476562 20 10 20 C 15.523438 20 20 15.523438 20 10 C 19.992188 4.480469 15.519531 0.0078125 10 0 Z M 10 18.332031 C 5.398438 18.332031 1.667969 14.601562 1.667969 10 C 1.667969 5.398438 5.398438 1.667969 10 1.667969 C 14.601562 1.667969 18.332031 5.398438 18.332031 10 C 18.328125 14.601562 14.601562 18.328125 10 18.332031 Z M 10 18.332031 "/>
<path style=" stroke:none;fill-rule:nonzero;fill:rgb(0%,0%,0%);fill-opacity:1;" d="M 10.597656 4.21875 C 9.625 4.042969 8.625 4.304688 7.863281 4.9375 C 7.105469 5.574219 6.667969 6.511719 6.667969 7.5 C 6.667969 7.960938 7.039062 8.332031 7.5 8.332031 C 7.960938 8.332031 8.332031 7.960938 8.332031 7.5 C 8.332031 7.003906 8.554688 6.53125 8.9375 6.214844 C 9.316406 5.898438 9.820312 5.769531 10.308594 5.859375 C 10.984375 5.992188 11.507812 6.515625 11.640625 7.191406 C 11.777344 7.898438 11.441406 8.613281 10.808594 8.960938 C 9.769531 9.5625 9.140625 10.679688 9.167969 11.878906 L 9.167969 12.5 C 9.167969 12.960938 9.539062 13.332031 10 13.332031 C 10.460938 13.332031 10.832031 12.960938 10.832031 12.5 L 10.832031 11.878906 C 10.8125 11.289062 11.109375 10.734375 11.609375 10.421875 C 12.84375 9.742188 13.519531 8.355469 13.292969 6.964844 C 13.066406 5.570312 11.988281 4.46875 10.597656 4.21875 Z M 10.597656 4.21875 "/>
<path style=" stroke:none;fill-rule:nonzero;fill:rgb(0%,0%,0%);fill-opacity:1;" d="M 10 14.167969 C 10.460938 14.167969 10.832031 14.539062 10.832031 15 C 10.832031 15.460938 10.460938 15.832031 10 15.832031 C 9.539062 15.832031 9.167969 15.460938 9.167969 15 C 9.167969 14.539062 9.539062 14.167969 10 14.167969 Z M 10 14.167969 "/>
</g>
</svg>
