<?xml version="1.0" encoding="UTF-8"?>
<svg xmlns="http://www.w3.org/2000/svg" xmlns:xlink="http://www.w3.org/1999/xlink" width="20px" height="px" viewBox="0 0 20 20" version="1.1">
<g id="surface1">
<path style=" stroke:none;fill-rule:nonzero;fill:rgb(0%,0%,0%);fill-opacity:1;" d="M 14.582031 20 L 5.417969 20 C 3.347656 20 1.667969 18.316406 1.667969 16.25 L 1.667969 3.75 C 1.667969 1.683594 3.347656 0 5.417969 0 L 14.582031 0 C 16.652344 0 18.332031 1.683594 18.332031 3.75 L 18.332031 16.25 C 18.332031 18.316406 16.652344 20 14.582031 20 Z M 5.417969 0.832031 C 3.808594 0.832031 2.5 2.140625 2.5 3.75 L 2.5 16.25 C 2.5 17.859375 3.808594 19.167969 5.417969 19.167969 L 14.582031 19.167969 C 16.191406 19.167969 17.5 17.859375 17.5 16.25 L 17.5 3.75 C 17.5 2.140625 16.191406 0.832031 14.582031 0.832031 Z M 15 4.582031 C 15 4.351562 14.8125 4.167969 14.582031 4.167969 L 9.582031 4.167969 C 9.351562 4.167969 9.167969 4.351562 9.167969 4.582031 C 9.167969 4.8125 9.351562 5 9.582031 5 L 14.582031 5 C 14.8125 5 15 4.8125 15 4.582031 Z M 15 9.582031 C 15 9.351562 14.8125 9.167969 14.582031 9.167969 L 9.582031 9.167969 C 9.351562 9.167969 9.167969 9.351562 9.167969 9.582031 C 9.167969 9.8125 9.351562 10 9.582031 10 L 14.582031 10 C 14.8125 10 15 9.8125 15 9.582031 Z M 15 14.582031 C 15 14.351562 14.8125 14.167969 14.582031 14.167969 L 9.582031 14.167969 C 9.351562 14.167969 9.167969 14.351562 9.167969 14.582031 C 9.167969 14.8125 9.351562 15 9.582031 15 L 14.582031 15 C 14.8125 15 15 14.8125 15 14.582031 Z M 7.082031 5.832031 L 5.417969 5.832031 C 5.1875 5.832031 5 5.648438 5 5.417969 L 5 3.75 C 5 3.519531 5.1875 3.332031 5.417969 3.332031 L 7.082031 3.332031 C 7.3125 3.332031 7.5 3.519531 7.5 3.75 L 7.5 5.417969 C 7.5 5.648438 7.3125 5.832031 7.082031 5.832031 Z M 5.832031 5 L 6.667969 5 L 6.667969 4.167969 L 5.832031 4.167969 Z M 7.082031 10.832031 L 5.417969 10.832031 C 5.1875 10.832031 5 10.648438 5 10.417969 L 5 8.75 C 5 8.519531 5.1875 8.332031 5.417969 8.332031 L 7.082031 8.332031 C 7.3125 8.332031 7.5 8.519531 7.5 8.75 L 7.5 10.417969 C 7.5 10.648438 7.3125 10.832031 7.082031 10.832031 Z M 5.832031 10 L 6.667969 10 L 6.667969 9.167969 L 5.832031 9.167969 Z M 7.082031 15.832031 L 5.417969 15.832031 C 5.1875 15.832031 5 15.648438 5 15.417969 L 5 13.75 C 5 13.519531 5.1875 13.332031 5.417969 13.332031 L 7.082031 13.332031 C 7.3125 13.332031 7.5 13.519531 7.5 13.75 L 7.5 15.417969 C 7.5 15.648438 7.3125 15.832031 7.082031 15.832031 Z M 5.832031 15 L 6.667969 15 L 6.667969 14.167969 L 5.832031 14.167969 Z M 5.832031 15 "/>
</g>
</svg>
